<svg width="195" height="40" viewBox="0 0 195 40" fill="none" xmlns="http://www.w3.org/2000/svg">
<g clip-path="url(#clip0_181_15145)">
<path d="M70.0328 0V39.735H60.024H50.0222V19.8675L60.024 0H70.0328Z" fill="#45A0D9"/>
<path d="M50.0233 0V19.8675L40.0215 39.735H30.0127V19.8675L40.0215 0H50.0233Z" fill="#58ACDB"/>
<path d="M20.0106 0H30.0124V19.8675L20.0106 39.735H10.0018H0L20.0106 0Z" fill="#6ABAE0"/>
<path d="M94.448 8.57043L98.8589 0H101.907V15.7252H98.8378V5.96932L95.3892 12.901H93.4436L90.0441 6.03905V15.7252H86.9888V0H89.9949L94.448 8.57043Z" fill="#101010"/>
<path d="M110.764 0H107.547V15.7252H110.764V0Z" fill="#101010"/>
<path d="M128.325 0V15.7252H125.635L119.461 5.99721V15.7252H116.406V0H119.068L125.27 9.8675V0H128.325Z" fill="#101010"/>
<path d="M144.309 0V2.71269H139.954V15.7252H136.737V2.71269H132.376V0H144.309Z" fill="#101010"/>
<path d="M94.448 32.5666L98.8589 24.0032H101.907V39.7284H98.8378V29.9725L95.3892 36.8972H93.4436L90.0441 30.0422V39.7284H86.9888V24.0032H89.9949L94.448 32.5666Z" fill="#101010"/>
<path d="M117.19 24.0032V26.7159H110.532V30.2445H116.502V32.9362H110.532V37.0366H117.19V39.7284H107.322V24.0032H117.19Z" fill="#101010"/>
<path d="M121.707 39.7276V24.0024C126.89 24.0373 133.64 22.7681 133.415 30.8364C134.223 40.3762 128.66 39.9578 121.707 39.7207V39.7276ZM130.198 32.8936C130.388 27.9633 129.945 26.2339 124.916 26.7151V37.0359C127.901 37.2451 130.451 37.0777 130.198 32.8866" fill="#101010"/>
<path d="M148.742 24.0032V26.7159H144.38V39.7284H141.171V26.7159H136.809V24.0032H148.742Z" fill="#101010"/>
<path d="M162.65 24.0032V26.7159H155.991V30.2445H161.962V32.9362H155.991V37.0366H162.65V39.7284H152.781V24.0032H162.65Z" fill="#101010"/>
<path d="M175.474 28.8776C174.582 25.0003 169.349 25.879 169.897 30.7465V32.978C169.356 37.7339 174.596 38.8288 175.474 34.8469H178.529C177.63 42.5317 166.006 41.3811 166.687 32.978C165.058 22.183 177.146 20.7256 178.55 28.8776H175.474Z" fill="#101010"/>
<path d="M186.304 30.2445H191.79V24.0032H194.999V39.7284H191.79V32.9362H186.304V39.7284H183.087V24.0032H186.304V30.2445Z" fill="#101010"/>
</g>
<defs>
<clipPath id="clip0_181_15145">
<rect width="195" height="40" fill="white"/>
</clipPath>
</defs>
</svg>
